<svg width="1920" height="1080" viewBox="0 0 1920 1080" fill="none" xmlns="http://www.w3.org/2000/svg">
<g clip-path="url(#clip0_87_202)">
<line x1="960.25" y1="1080" x2="960.25" stroke="white" stroke-opacity="0.3" stroke-width="3.5"/>
<line x1="1009.5" y1="1080" x2="1009.5" stroke="white" stroke-opacity="0.3" stroke-width="3"/>
<line x1="1058.5" y1="1080" x2="1058.5" stroke="white" stroke-opacity="0.3" stroke-width="3"/>
<line x1="1106.5" y1="1080" x2="1106.5" stroke="white" stroke-opacity="0.3" stroke-width="3"/>
<line x1="1154.5" y1="1080" x2="1154.5" stroke="white" stroke-opacity="0.3" stroke-width="3"/>
<line x1="1201.5" y1="1080" x2="1201.5" stroke="white" stroke-opacity="0.3" stroke-width="3"/>
<line x1="1246.5" y1="1080" x2="1246.5" stroke="white" stroke-opacity="0.3" stroke-width="3"/>
<line x1="1290.5" y1="1080" x2="1290.5" stroke="white" stroke-opacity="0.3" stroke-width="3"/>
<line x1="1333.75" y1="1080" x2="1333.75" stroke="white" stroke-opacity="0.3" stroke-width="2.5"/>
<line x1="1373.75" y1="1080" x2="1373.75" stroke="white" stroke-opacity="0.3" stroke-width="2.5"/>
<line x1="1411.88" y1="1080" x2="1411.88" stroke="white" stroke-opacity="0.3" stroke-width="2.25"/>
<line x1="1448" y1="1080" x2="1448" stroke="white" stroke-opacity="0.3" stroke-width="2"/>
<line x1="1480.25" y1="1080" x2="1480.25" stroke="white" stroke-opacity="0.3" stroke-width="1.5"/>
<line x1="1510.38" y1="1080" x2="1510.38" stroke="white" stroke-opacity="0.3" stroke-width="1.25"/>
<line x1="1537.5" y1="1080" x2="1537.5" stroke="white" stroke-opacity="0.3"/>
<line x1="1560.5" y1="1080" x2="1560.5" stroke="white" stroke-opacity="0.25"/>
<line x1="1580.5" y1="1080" x2="1580.5" stroke="white" stroke-opacity="0.2"/>
<line x1="1596.5" y1="1080" x2="1596.5" stroke="white" stroke-opacity="0.15"/>
<line x1="1607.5" y1="1080" x2="1607.5" stroke="white" stroke-opacity="0.1"/>
<line x1="1617.5" y1="1080" x2="1617.5" stroke="white" stroke-opacity="0.05"/>
<line y1="-1.5" x2="1080" y2="-1.5" transform="matrix(0 -1 -1 0 909 1080)" stroke="white" stroke-opacity="0.3" stroke-width="3"/>
<line y1="-1.5" x2="1080" y2="-1.5" transform="matrix(0 -1 -1 0 860 1080)" stroke="white" stroke-opacity="0.3" stroke-width="3"/>
<line y1="-1.5" x2="1080" y2="-1.5" transform="matrix(0 -1 -1 0 812 1080)" stroke="white" stroke-opacity="0.3" stroke-width="3"/>
<line y1="-1.5" x2="1080" y2="-1.5" transform="matrix(0 -1 -1 0 764 1080)" stroke="white" stroke-opacity="0.3" stroke-width="3"/>
<line y1="-1.5" x2="1080" y2="-1.5" transform="matrix(0 -1 -1 0 717 1080)" stroke="white" stroke-opacity="0.3" stroke-width="3"/>
<line y1="-1.5" x2="1080" y2="-1.5" transform="matrix(0 -1 -1 0 672 1080)" stroke="white" stroke-opacity="0.3" stroke-width="3"/>
<line y1="-1.5" x2="1080" y2="-1.5" transform="matrix(0 -1 -1 0 628 1080)" stroke="white" stroke-opacity="0.3" stroke-width="3"/>
<line y1="-1.25" x2="1080" y2="-1.25" transform="matrix(0 -1 -1 0 585 1080)" stroke="white" stroke-opacity="0.3" stroke-width="2.5"/>
<line y1="-1.25" x2="1080" y2="-1.25" transform="matrix(0 -1 -1 0 545 1080)" stroke="white" stroke-opacity="0.3" stroke-width="2.5"/>
<line y1="-1.125" x2="1080" y2="-1.125" transform="matrix(0 -1 -1 0 507 1080)" stroke="white" stroke-opacity="0.3" stroke-width="2.25"/>
<line y1="-1" x2="1080" y2="-1" transform="matrix(0 -1 -1 0 471 1080)" stroke="white" stroke-opacity="0.3" stroke-width="2"/>
<line y1="-0.75" x2="1080" y2="-0.75" transform="matrix(0 -1 -1 0 439 1080)" stroke="white" stroke-opacity="0.3" stroke-width="1.5"/>
<line y1="-0.625" x2="1080" y2="-0.625" transform="matrix(0 -1 -1 0 409 1080)" stroke="white" stroke-opacity="0.3" stroke-width="1.25"/>
<line y1="-0.5" x2="1080" y2="-0.5" transform="matrix(0 -1 -1 0 382 1080)" stroke="white" stroke-opacity="0.3"/>
<line y1="-0.5" x2="1080" y2="-0.5" transform="matrix(0 -1 -1 0 359 1080)" stroke="white" stroke-opacity="0.25"/>
<line y1="-0.5" x2="1080" y2="-0.5" transform="matrix(0 -1 -1 0 339 1080)" stroke="white" stroke-opacity="0.2"/>
<line y1="-0.5" x2="1080" y2="-0.5" transform="matrix(0 -1 -1 0 323 1080)" stroke="white" stroke-opacity="0.15"/>
<line y1="-0.5" x2="1080" y2="-0.5" transform="matrix(0 -1 -1 0 312 1080)" stroke="white" stroke-opacity="0.1"/>
<line y1="-0.5" x2="1080" y2="-0.5" transform="matrix(0 -1 -1 0 302 1080)" stroke="white" stroke-opacity="0.05"/>
<path d="M303 -111C342.5 38.335 1579.5 40.9925 1617 -111" stroke="white" stroke-opacity="0.3" stroke-width="2" stroke-linecap="square"/>
<path d="M303 -74C342.5 88.5505 1579.5 91.4431 1617 -74" stroke="white" stroke-opacity="0.3" stroke-width="2" stroke-linecap="square"/>
<path d="M303 -40C342.5 135.766 1579.5 138.894 1617 -40" stroke="white" stroke-opacity="0.3" stroke-width="2" stroke-linecap="square"/>
<path d="M302 7C341.5 182.766 1578.5 185.894 1616 7" stroke="white" stroke-opacity="0.3" stroke-width="2" stroke-linecap="square"/>
<path d="M305 53C344.5 228.766 1581.5 231.894 1619 53" stroke="white" stroke-opacity="0.3" stroke-width="2" stroke-linecap="square"/>
<path d="M309 97C348.5 272.766 1585.5 275.894 1623 97" stroke="white" stroke-opacity="0.3" stroke-width="2" stroke-linecap="square"/>
<path d="M305 145C344.5 320.766 1581.5 323.894 1619 145" stroke="white" stroke-opacity="0.3" stroke-width="2" stroke-linecap="square"/>
<path d="M305 197C344.5 372.766 1581.5 375.894 1619 197" stroke="white" stroke-opacity="0.3" stroke-width="2" stroke-linecap="square"/>
<path d="M309 249C348.5 424.766 1585.5 427.894 1623 249" stroke="white" stroke-opacity="0.3" stroke-width="2" stroke-linecap="square"/>
<path d="M309 304C348.5 479.766 1585.5 482.894 1623 304" stroke="white" stroke-opacity="0.3" stroke-width="2" stroke-linecap="square"/>
<path d="M305 357C344.5 532.766 1581.5 535.894 1619 357" stroke="white" stroke-opacity="0.3" stroke-width="2" stroke-linecap="square"/>
<path d="M303 407C342.5 582.766 1579.5 585.894 1617 407" stroke="white" stroke-opacity="0.3" stroke-width="2" stroke-linecap="square"/>
<path d="M303 463C342.5 638.766 1579.5 641.894 1617 463" stroke="white" stroke-opacity="0.3" stroke-width="2" stroke-linecap="square"/>
<path d="M302 511C341.5 686.766 1578.5 689.894 1616 511" stroke="white" stroke-opacity="0.3" stroke-width="2" stroke-linecap="square"/>
<path d="M303 568C342.5 743.766 1579.5 746.894 1617 568" stroke="white" stroke-opacity="0.3" stroke-width="2" stroke-linecap="square"/>
<path d="M302 623C341.5 798.766 1578.5 801.894 1616 623" stroke="white" stroke-opacity="0.3" stroke-width="2" stroke-linecap="square"/>
<path d="M302 672C341.5 847.766 1578.5 850.894 1616 672" stroke="white" stroke-opacity="0.3" stroke-width="2" stroke-linecap="square"/>
<path d="M302 727C341.5 902.766 1578.5 905.894 1616 727" stroke="white" stroke-opacity="0.3" stroke-width="2" stroke-linecap="square"/>
<path d="M309 775C348.5 950.766 1585.5 953.894 1623 775" stroke="white" stroke-opacity="0.3" stroke-width="2" stroke-linecap="square"/>
<path d="M305 824C344.5 999.766 1581.5 1002.89 1619 824" stroke="white" stroke-opacity="0.3" stroke-width="2" stroke-linecap="square"/>
<path d="M303 866C342.5 1041.77 1579.5 1044.89 1617 866" stroke="white" stroke-opacity="0.3" stroke-width="2" stroke-linecap="square"/>
<path d="M302 908C341.5 1083.77 1578.5 1086.89 1616 908" stroke="white" stroke-opacity="0.3" stroke-width="2" stroke-linecap="square"/>
<path d="M303 957C342.5 1122.19 1579.5 1125.13 1617 957" stroke="white" stroke-opacity="0.3" stroke-width="2" stroke-linecap="square"/>
<path d="M303 1006C342.5 1168.55 1579.5 1171.44 1617 1006" stroke="white" stroke-opacity="0.3" stroke-width="2" stroke-linecap="square"/>
<path d="M303 1040C342.5 1215.77 1579.5 1218.89 1617 1040" stroke="white" stroke-opacity="0.3" stroke-width="2" stroke-linecap="square"/>
<path d="M76 23L294 23" stroke="white" stroke-opacity="0.08" stroke-width="4"/>
<path d="M77 210H295" stroke="white" stroke-opacity="0.08" stroke-width="4"/>
<path d="M77 252H295" stroke="white" stroke-opacity="0.08" stroke-width="4"/>
<path d="M77 293H295" stroke="white" stroke-opacity="0.08" stroke-width="4"/>
<path d="M77 337H295" stroke="white" stroke-opacity="0.08" stroke-width="4"/>
<path d="M78 548H295" stroke="white" stroke-opacity="0.08" stroke-width="4"/>
<path d="M76.5 762H295" stroke="white" stroke-opacity="0.08" stroke-width="4"/>
<path d="M77 379H295" stroke="white" stroke-opacity="0.08" stroke-width="4"/>
<path d="M77 423H295" stroke="white" stroke-opacity="0.08" stroke-width="4"/>
<path d="M77 464H295" stroke="white" stroke-opacity="0.08" stroke-width="4"/>
<path d="M77 507H295" stroke="white" stroke-opacity="0.08" stroke-width="4"/>
<path d="M77 593H295" stroke="white" stroke-opacity="0.08" stroke-width="4"/>
<path d="M77 636H295" stroke="white" stroke-opacity="0.08" stroke-width="4"/>
<path d="M77 678H295" stroke="white" stroke-opacity="0.08" stroke-width="4"/>
<path d="M77 720H295" stroke="white" stroke-opacity="0.08" stroke-width="4"/>
<path d="M77 806H295" stroke="white" stroke-opacity="0.08" stroke-width="4"/>
<path d="M77 848H295" stroke="white" stroke-opacity="0.08" stroke-width="4"/>
<path d="M77 891H295" stroke="white" stroke-opacity="0.08" stroke-width="4"/>
<path d="M77 934H295" stroke="white" stroke-opacity="0.08" stroke-width="4"/>
<path d="M77 977H295" stroke="white" stroke-opacity="0.08" stroke-width="4"/>
<path d="M77 1018H295" stroke="white" stroke-opacity="0.08" stroke-width="4"/>
<path d="M77 1061H295" stroke="white" stroke-opacity="0.08" stroke-width="4"/>
<path d="M78 171H295" stroke="white" stroke-opacity="0.08" stroke-width="4"/>
<path d="M78 133H295" stroke="white" stroke-opacity="0.08" stroke-width="4"/>
<path d="M77 97L294 97" stroke="white" stroke-opacity="0.08" stroke-width="4"/>
<path d="M78 61L295 61" stroke="white" stroke-opacity="0.08" stroke-width="4"/>
<path d="M1623 23L1841 23" stroke="white" stroke-opacity="0.08" stroke-width="4"/>
<path d="M1624 210H1842" stroke="white" stroke-opacity="0.08" stroke-width="4"/>
<path d="M1624 252H1842" stroke="white" stroke-opacity="0.08" stroke-width="4"/>
<path d="M1624 293H1842" stroke="white" stroke-opacity="0.08" stroke-width="4"/>
<path d="M1624 337H1842" stroke="white" stroke-opacity="0.08" stroke-width="4"/>
<path d="M1625 548H1842" stroke="white" stroke-opacity="0.08" stroke-width="4"/>
<path d="M1623.5 762H1842" stroke="white" stroke-opacity="0.08" stroke-width="4"/>
<path d="M1624 379H1842" stroke="white" stroke-opacity="0.08" stroke-width="4"/>
<path d="M1624 423H1842" stroke="white" stroke-opacity="0.08" stroke-width="4"/>
<path d="M1624 464H1842" stroke="white" stroke-opacity="0.08" stroke-width="4"/>
<path d="M1624 507H1842" stroke="white" stroke-opacity="0.08" stroke-width="4"/>
<path d="M1624 593H1842" stroke="white" stroke-opacity="0.08" stroke-width="4"/>
<path d="M1624 636H1842" stroke="white" stroke-opacity="0.08" stroke-width="4"/>
<path d="M1624 678H1842" stroke="white" stroke-opacity="0.08" stroke-width="4"/>
<path d="M1624 720H1842" stroke="white" stroke-opacity="0.08" stroke-width="4"/>
<path d="M1624 806H1842" stroke="white" stroke-opacity="0.08" stroke-width="4"/>
<path d="M1624 848H1842" stroke="white" stroke-opacity="0.08" stroke-width="4"/>
<path d="M1624 891H1842" stroke="white" stroke-opacity="0.08" stroke-width="4"/>
<path d="M1624 934H1842" stroke="white" stroke-opacity="0.08" stroke-width="4"/>
<path d="M1624 977H1842" stroke="white" stroke-opacity="0.08" stroke-width="4"/>
<path d="M1624 1018H1842" stroke="white" stroke-opacity="0.08" stroke-width="4"/>
<path d="M1624 1061H1842" stroke="white" stroke-opacity="0.08" stroke-width="4"/>
<path d="M1625 171H1842" stroke="white" stroke-opacity="0.08" stroke-width="4"/>
<path d="M1625 133H1842" stroke="white" stroke-opacity="0.08" stroke-width="4"/>
<path d="M1624 97L1841 97" stroke="white" stroke-opacity="0.08" stroke-width="4"/>
<path d="M1625 61L1842 61" stroke="white" stroke-opacity="0.08" stroke-width="4"/>
<path d="M256 1088L256 -397" stroke="white" stroke-opacity="0.08" stroke-width="4"/>
<path d="M213 1083L213 -13.5" stroke="white" stroke-opacity="0.08" stroke-width="4"/>
<path d="M128 1083L128 -1" stroke="white" stroke-opacity="0.08" stroke-width="4"/>
<path d="M170 1083L170 -9.5" stroke="white" stroke-opacity="0.08" stroke-width="4"/>
<path d="M85 1088.5L85 -0.5" stroke="white" stroke-opacity="0.08" stroke-width="4"/>
<line y1="-2" x2="1080" y2="-2" transform="matrix(0 -1 -1 0 42 1080)" stroke="white" stroke-opacity="0.08" stroke-width="4"/>
<line y1="-2" x2="1080" y2="-2" transform="matrix(0 -1 -1 0 1875 1080)" stroke="white" stroke-opacity="0.08" stroke-width="4"/>
<line y1="-2" x2="1080" y2="-2" transform="matrix(0 -1 -1 0 -1 1080)" stroke="white" stroke-opacity="0.08" stroke-width="4"/>
<path d="M1834 1080V-3M1662 1080V-3M1790.63 1080V-3M1747.25 1080V-3M1704.88 1080V-3" stroke="white" stroke-opacity="0.08" stroke-width="4"/>
</g>
<defs>
<clipPath id="clip0_87_202">
<rect width="1920" height="1080" fill="white"/>
</clipPath>
</defs>
</svg>
